<?xml version="1.0" encoding="UTF-8"?>
<svg xmlns="http://www.w3.org/2000/svg" version="1.1" viewBox="0 0 1232.05 590.62">
  <!-- Generator: Adobe Illustrator 28.7.1, SVG Export Plug-In . SVG Version: 1.2.0 Build 142)  -->
  <g>
    <g id="Layer_1">
      <g>
        <path d="M560.3-956.71c17.49,0,34.98-.21,52.47.08,12.19.21,24.44.52,36.29,4,19.52,5.73,31.28,19.33,32.36,41.13.7,14.15-1.12,27.44-11.65,37.92-9.1,9.07-20.92,12.9-33.07,15.68-2.72.62-3.57.75-1.57,3.48,12.03,16.39,23.81,32.97,35.84,49.36,4.99,6.8,10.26,13.45,19.18,15.54,1.37.32,2.05,1.37,1.98,2.99-.09,2.23-1.63,1.69-2.82,1.69-22.15.02-44.31.03-66.46,0-1.14,0-2.92.67-2.81-1.61.07-1.48-.34-2.58,2-3.55,6.25-2.59,7.27-6.62,3.37-12.28-11.86-17.25-23.94-34.35-35.86-51.57-1.06-1.53-2.3-1.62-3.83-1.62-11.83.02-23.65.09-35.48-.04-2.78-.03-3.26,1.1-3.25,3.55.08,16.81-.04,33.63.1,50.44.04,5.24,1.66,9.9,7.46,11.52,1.98.56,2.7,1.61,2.56,3.56-.18,2.6-2.16,1.57-3.37,1.57-17.82.07-35.64.07-53.47,0-1.22,0-3.19,1-3.41-1.55-.17-1.94.6-2.92,2.52-3.61,5.05-1.82,6.68-5.77,6.68-10.95-.07-46.45-.08-92.9.02-139.35.01-5.28-1.71-9.09-6.84-10.78-2.23-.73-2.61-2.12-2.38-4.1.29-2.54,2.26-1.47,3.47-1.48,19.99-.07,39.98-.05,59.96-.04ZM581.52-885.99c6.99,0,13.98-.06,20.97.02,8.45.09,16.85-.13,25.04-2.6,7.46-2.24,12.06-8.07,12.38-15.99.38-9.35-3.02-15.09-10.52-18.22-6.43-2.69-13.36-2.52-19.98-2.72-19.62-.59-39.28-.14-58.92-.27-2.91-.02-3.56.91-3.52,3.65.15,10.65.23,21.3-.04,31.94-.1,3.77,1.35,4.32,4.62,4.26,9.98-.19,19.97-.07,29.96-.06Z"/>
        <path d="M295.16-790.83c-13.5-7.11-25.61-15.89-34.73-28.36-12.84-17.57-16.65-37.51-15.45-58.75.95-16.81,5.53-32.62,16.07-45.84,12.37-15.52,28.71-25.5,47.84-31.14,16.32-4.81,32.88-6,49.71-4.73,6.91.52,13.74,1.76,20.44,3.62,2.22.62,4.52.97,6.78,1.44,9.12,4.14,18.38,7.97,26.48,14.06,21.58,16.24,32.74,37.79,33.83,64.77.55,13.49-.34,26.68-5.5,39.31-8.42,20.58-23.34,34.99-43.05,44.62-22.33,10.92-46.14,12.5-70.34,9.88-11.07-1.2-21.78-4.5-32.08-8.88ZM404.21-870.33c1.85-32.62-24.55-57.51-58.89-57.43-34.39.09-58.68,23.7-58.89,56.77-.21,33.93,25.51,55.85,55.83,57.48,37.6,2.01,64.51-27.52,61.94-56.82Z"/>
        <path d="M1025.73-956.7c24.65,0,49.31-.08,73.96.06,5.71.03,10.14-1.34,11.35-7.52.47-2.4,2.04-2.34,3.62-2.34,2.11,0,1.6,1.78,1.6,2.97.04,14.98.04,29.97.02,44.96,0,1.24.44,2.79-1.71,2.88-1.49.06-2.46-.25-2.92-1.9-1.96-6.95-7.67-8.06-13.61-8.08-32.48-.1-64.97,0-97.45-.12-3.33-.01-4.63.61-4.53,4.29.27,9.98.22,19.98.01,29.97-.07,3.14.87,3.88,3.91,3.86,20.49-.13,40.98-.13,61.47-.03,5.2.02,8.49-2.49,10.25-7.02.78-2.01,1.55-3.33,3.82-2.8,2.23.52,1.28,2.44,1.29,3.73.07,14.15.08,28.31,0,42.46,0,1.22,1.07,3.14-1.4,3.55-2.07.35-2.87-.69-3.55-2.5-2.13-5.72-6.37-7.65-12.44-7.57-19.49.25-38.98.18-58.47.02-3.56-.03-4.98.62-4.88,4.58.28,11.15.17,22.31.04,33.46-.03,2.8.33,4.09,3.69,4.07,35.31-.14,70.63-.09,105.95-.09,4.8,0,8.28-2.1,10-6.62.72-1.87,1.41-3.42,3.77-3.03,2.7.45,1.49,2.63,1.5,4,.09,14.32.09,28.64,0,42.96,0,1.24,1,3.12-1.29,3.65-2.03.47-3.18-.63-3.68-2.38-1.83-6.35-6.72-7.59-12.42-7.59-25.65,0-51.31,0-76.96,0-25.65,0-51.31.03-76.96-.07-1.49,0-3.88,1.32-4.44-1.47-.55-2.72,1.67-3.14,3.55-3.87,4.61-1.8,6.39-5.53,6.46-10.18.1-6.33.03-12.65.03-18.98,0-39.29-.05-78.59.07-117.88.02-6.64-.93-12.34-8.37-14.37-2.14-.59-1.85-2.13-1.72-3.54.22-2.4,2.23-1.49,3.48-1.49,25.65-.06,51.31-.04,76.96-.04Z"/>
        <path d="M1184.75-886.25c0-20.24-.07-36.72.04-53.2.04-5.74-1.78-10.09-7.61-11.83-2.09-.62-2.3-1.86-2.25-3.67.07-2.65,2.01-1.71,3.24-1.71,17.99-.06,35.98-.06,53.97,0,1.23,0,3.19-.95,3.52,1.44.28,2.05-.36,3.24-2.64,3.94-5.32,1.65-7.15,5.58-7.13,11.08.14,29.63-.24,59.27.17,88.9.31,22.15,9.46,32.31,32.53,36.44,12.96,2.32,26.15,2.19,38.89-2.04,12.59-4.18,20.93-12.04,22.61-25.99.55-4.61.96-9.2.96-13.81.05-27.47-.08-54.94.11-82.41.04-6.01-1.59-10.48-7.61-12.31-2.16-.66-2.44-1.89-2.29-3.67.22-2.5,2.19-1.57,3.45-1.57,16.99-.06,33.98-.06,50.97,0,1.21,0,3.28-.99,3.24,1.66-.02,1.45.29,2.86-1.93,3.35-7.07,1.56-8.44,6.81-8.42,13.17.08,30.3.11,60.6,0,90.9-.04,10.43-1.06,20.81-4.76,30.68-6.35,16.91-20.04,25.32-36.3,30.21-22.11,6.65-44.86,6.78-67.56,4.66-12.93-1.2-25.64-4.22-37.46-10.04-16.87-8.3-24.4-22.66-26.58-40.66-2.3-19.07-.4-38.21-1.14-53.54Z"/>
        <path d="M817.62-956.7c24.49,0,48.97-.08,73.46.05,5.99.03,10.48-1.59,11.87-7.97.47-2.14,1.94-1.91,3.42-1.93,2.25-.02,1.58,1.74,1.59,2.87.04,15.15.04,30.3,0,45.45,0,1.01.54,2.62-1.42,2.48-1.31-.09-3.02.79-3.59-1.52-1.8-7.33-7.58-8.43-13.82-8.43-31.82-.05-63.63.06-95.45-.13-4.07-.02-4.87,1.2-4.77,4.95.26,9.65.19,19.31.03,28.97-.05,2.99.36,4.3,3.92,4.26,20.32-.2,40.64-.2,60.96-.03,5.48.04,8.65-2.66,10.68-7.21.73-1.64,1.24-3.02,3.42-2.7,2.73.4,1.69,2.51,1.7,3.91.07,14.15.06,28.3,0,42.45,0,1.27.86,3.13-1.6,3.47-2,.27-2.89-.55-3.52-2.41-1.89-5.59-5.92-7.7-11.81-7.65-19.82.18-39.64.17-59.46-.03-3.59-.03-4.36,1-4.32,4.42.18,17.31.15,34.63.04,51.94-.03,5.56,1.68,9.77,7.34,11.54,1.81.57,2.92,1.44,2.65,3.52-.37,2.81-2.55,1.54-3.87,1.55-17.82.09-35.65.09-53.47.01-1.22,0-3.12,1.04-3.64-1.27-.47-2.08.76-3.11,2.48-3.63,6-1.8,7.57-6.31,7.57-11.94-.02-46.12-.03-92.24,0-138.35,0-5.42-2.14-9.3-7.37-11.07-2-.68-2.99-1.53-2.76-3.83.31-2.96,2.46-1.69,3.76-1.7,25.32-.08,50.64-.06,75.96-.06Z"/>
      </g>
      <path d="M110.55-881.67c-25.03.49-49.37-4.04-73.48-10.16-7.76-1.97-7.84-1.92-8.98,5.87-1.74,11.93-1.61,23.78.89,35.6.4,1.9.52,2.9,3.07,2.2,17.66-4.86,35.64-8.39,53.83-10.34,19.48-2.09,39.06-2.57,58.37,1.96,2.81.66,5.53,2.07,8.03,3.57,5.31,3.2,5.85,5.68,3.48,13.59-12.46,41.58-39.42,70.09-79.05,86.84-22.34,9.44-46.02,12.55-69.99,10.55-35.21-2.95-66.22-16.12-91.39-41.55-17.16-17.34-28.22-38.12-33.98-61.7-1.28-5.25,3.38-7.2,7.04-8.82,9.69-4.28,20.06-5.34,30.54-5.7,27.84-.94,55.03,3.46,81.92,10.14,8.28,2.05,9.36,1.75,10.07-6.32.96-10.9,1.3-21.84-.74-32.73-.67-3.61-1.93-4.94-5.64-3.86-10.79,3.12-21.78,5.44-32.85,7.21-25.98,4.15-52.03,6.22-78.08.51-3.84-.84-7.4-2.84-10.4-5.53-1.71-1.53-2.55-3.44-1.93-5.77,5.85-22.03,15.74-41.84,31.4-58.7,18-19.39,39.97-32.2,65.2-39.28,16.29-4.57,33.12-6.74,50.06-5.46,38.15,2.87,71.69,16.36,98.08,44.88,15.17,16.39,25.91,35.35,30.43,57.47,1.02,5-.51,7.84-5.66,9.92-9.05,3.65-18.49,5.52-28.26,5.62-4,.04-8,0-11.99,0ZM-89.19-839.37c8.87.63,17.67,1.24,26.44,2.5,21.25,3.05,41.97,8.27,62.14,15.46,29.29,10.44,57.35,23.54,83.41,40.66,1.59,1.04,3.18,1.4,4.63.35,4.61-3.36,9.5-6.4,13.33-10.92-32.66-16.78-65.93-31.35-101.28-40.87-23.59-6.35-47.39-10.71-71.91-9.92-5.64.18-11.44-.03-16.76,2.75ZM128.37-901.61c-2.77-.36-5.54-.94-8.32-1.05-22.93-.88-45-6.21-66.88-12.63-15.37-4.51-30.22-10.38-44.85-16.83-15.25-6.73-30.12-14.28-44.29-23.06-11.69-7.25-11.54-7.49-22.08,1.34-4.61,3.86-4.59,4.06.63,6.52,10.73,5.07,21.4,10.25,32.2,15.16,19.35,8.81,39.26,16.21,59.7,22.02,15.52,4.42,31.27,7.85,47.36,9.69,15.57,1.78,31.04,2.06,46.53-1.18ZM64.77-769.14c-45.35-29.88-93.35-49.96-147.42-53.24,10.53,3.57,21.32,6.28,31.77,10.19,32.15,12.04,62.85,26.72,90.06,47.99.91.71,1.71,1.64,3.03,1.35,7.34-1.6,14.75-2.97,22.56-6.3ZM120.42-918.86c-3.18-2.21-6.99-2.44-10.55-3.49-19.79-5.8-38.93-13.22-57.41-22.38-18.2-9.01-36.09-18.52-51.95-31.42-1.09-.88-2.13-2.23-3.85-2-7.56,1.02-14.87,2.92-22.67,6.2,45.17,29.59,92.76,49.69,146.43,53.08ZM29.47-979.83c10.53,12.2,68.1,40.86,80.87,40.34-20.8-25.64-49.59-34.48-80.87-40.34ZM-71.29-802.51c9.06,18.22,61.02,43.75,80.6,40.03-24.87-17.24-50.81-31.71-80.6-40.03ZM92.61-816.45c6.76,3.44,13.08,6.59,19.33,9.87,1.79.94,3.01.78,4.2-.86,7.69-10.62,14.22-21.9,20.04-34.89-16.37,6.73-31.64,13.03-43.57,25.89ZM-97.27-899.12c10.09-3.77,18.74-7.65,26.91-12.6,4.97-3.01,9.66-6.31,13.8-10.42,1.88-1.87,2.29-2.89-.46-4.22-5.49-2.65-10.88-5.52-16.3-8.34-1.67-.87-2.79-.8-4.09.92-7.87,10.42-14.11,21.75-19.87,34.67ZM-7.03-904.98c-8.97-3.63-16.92-6.74-24.75-10.1-1.75-.75-2.39.25-3.41.99-4.69,3.38-9.53,6.52-14.56,9.4-6.73,3.85-14.05,6.39-21.03,9.78,21.57.6,42.23-3.91,63.76-10.07ZM45.91-836.28c8.59,3.62,16.57,6.98,24.55,10.33,1.49.62,2.46-.36,3.53-1.18,6.46-4.9,13.36-9.14,20.68-12.6,5.07-2.39,10.39-4.26,15.6-6.36-21.96-.8-42.94,3.65-64.37,9.8Z"/>
      <g>
        <path d="M347.92,332.04c17.49,0,34.98-.21,52.47.08,12.19.21,24.44.52,36.29,4,19.52,5.73,31.28,19.33,32.36,41.13.7,14.15-1.12,27.44-11.65,37.92-9.1,9.07-20.92,12.9-33.07,15.68-2.72.62-3.57.75-1.57,3.48,12.03,16.39,23.81,32.97,35.84,49.36,4.99,6.8,10.26,13.45,19.18,15.54,1.37.32,2.05,1.37,1.98,2.99-.09,2.23-1.63,1.69-2.82,1.69-22.15.02-44.31.03-66.46,0-1.14,0-2.92.67-2.81-1.61.07-1.48-.34-2.58,2-3.55,6.25-2.59,7.27-6.62,3.37-12.28-11.86-17.25-23.94-34.35-35.86-51.57-1.06-1.53-2.3-1.62-3.83-1.62-11.83.02-23.65.09-35.48-.04-2.78-.03-3.26,1.1-3.25,3.55.08,16.81-.04,33.63.1,50.44.04,5.24,1.66,9.9,7.46,11.52,1.98.56,2.7,1.61,2.56,3.56-.18,2.6-2.16,1.57-3.37,1.57-17.82.07-35.64.07-53.47,0-1.22,0-3.19,1-3.41-1.55-.17-1.94.6-2.92,2.52-3.61,5.05-1.82,6.68-5.77,6.68-10.95-.07-46.45-.08-92.9.02-139.35.01-5.28-1.71-9.09-6.84-10.78-2.23-.73-2.61-2.12-2.38-4.1.29-2.54,2.26-1.47,3.47-1.48,19.99-.07,39.98-.05,59.96-.04ZM369.15,402.76c6.99,0,13.98-.06,20.97.02,8.45.09,16.85-.13,25.04-2.6,7.46-2.24,12.06-8.07,12.38-15.99.38-9.35-3.02-15.09-10.52-18.22-6.43-2.69-13.36-2.52-19.98-2.72-19.62-.59-39.28-.14-58.92-.27-2.91-.02-3.56.91-3.52,3.65.15,10.65.23,21.3-.04,31.94-.1,3.77,1.35,4.32,4.62,4.26,9.98-.19,19.97-.07,29.96-.06Z"/>
        <path d="M82.79,497.92c-13.5-7.11-25.61-15.89-34.73-28.36-12.84-17.57-16.65-37.51-15.45-58.75.95-16.81,5.53-32.62,16.07-45.84,12.37-15.52,28.71-25.5,47.84-31.14,16.32-4.81,32.88-6,49.71-4.73,6.91.52,13.74,1.76,20.44,3.62,2.22.62,4.52.97,6.78,1.44,9.12,4.14,18.38,7.97,26.48,14.06,21.58,16.24,32.74,37.79,33.83,64.77.55,13.49-.34,26.68-5.5,39.31-8.42,20.58-23.34,34.99-43.05,44.62-22.33,10.92-46.14,12.5-70.34,9.88-11.07-1.2-21.78-4.5-32.08-8.88ZM191.84,418.42c1.85-32.62-24.55-57.51-58.89-57.43-34.39.09-58.68,23.7-58.89,56.77-.21,33.93,25.51,55.85,55.83,57.48,37.6,2.01,64.51-27.52,61.94-56.82Z"/>
        <path d="M813.36,332.05c24.65,0,49.31-.08,73.96.06,5.71.03,10.14-1.34,11.35-7.52.47-2.4,2.04-2.34,3.62-2.34,2.11,0,1.6,1.78,1.6,2.97.04,14.98.04,29.97.02,44.96,0,1.24.44,2.79-1.71,2.88-1.49.06-2.46-.25-2.92-1.9-1.96-6.95-7.67-8.06-13.61-8.08-32.48-.1-64.97,0-97.45-.12-3.33-.01-4.63.61-4.53,4.29.27,9.98.22,19.98.01,29.97-.07,3.14.87,3.88,3.91,3.86,20.49-.13,40.98-.13,61.47-.03,5.2.02,8.49-2.49,10.25-7.02.78-2.01,1.55-3.33,3.82-2.8,2.23.52,1.28,2.44,1.29,3.73.07,14.15.08,28.31,0,42.46,0,1.22,1.07,3.14-1.4,3.55-2.07.35-2.87-.69-3.55-2.5-2.13-5.72-6.37-7.65-12.44-7.57-19.49.25-38.98.18-58.47.02-3.56-.03-4.98.62-4.88,4.58.28,11.15.17,22.31.04,33.46-.03,2.8.33,4.09,3.69,4.07,35.31-.14,70.63-.09,105.95-.09,4.8,0,8.28-2.1,10-6.62.72-1.87,1.41-3.42,3.77-3.03,2.7.45,1.49,2.63,1.5,4,.09,14.32.09,28.64,0,42.96,0,1.24,1,3.12-1.29,3.65-2.03.47-3.18-.63-3.68-2.38-1.83-6.35-6.72-7.59-12.42-7.59-25.65,0-51.31,0-76.96,0-25.65,0-51.31.03-76.96-.07-1.49,0-3.88,1.32-4.44-1.47-.55-2.72,1.67-3.14,3.55-3.87,4.61-1.8,6.39-5.53,6.46-10.18.1-6.33.03-12.65.03-18.98,0-39.29-.05-78.59.07-117.88.02-6.64-.93-12.34-8.37-14.37-2.14-.59-1.85-2.13-1.72-3.54.22-2.4,2.23-1.49,3.48-1.49,25.65-.06,51.31-.04,76.96-.04Z"/>
        <path d="M972.37,402.5c0-20.24-.07-36.72.04-53.2.04-5.74-1.78-10.09-7.61-11.83-2.09-.62-2.3-1.86-2.25-3.67.07-2.65,2.01-1.71,3.24-1.71,17.99-.06,35.98-.06,53.97,0,1.23,0,3.19-.95,3.52,1.44.28,2.05-.36,3.24-2.64,3.94-5.32,1.65-7.15,5.58-7.13,11.08.14,29.63-.24,59.27.17,88.9.31,22.15,9.46,32.31,32.53,36.44,12.96,2.32,26.15,2.19,38.89-2.04,12.59-4.18,20.93-12.04,22.61-25.99.55-4.61.96-9.2.96-13.81.05-27.47-.08-54.94.11-82.41.04-6.01-1.59-10.48-7.61-12.31-2.16-.66-2.44-1.89-2.29-3.67.22-2.5,2.19-1.57,3.45-1.57,16.99-.06,33.98-.06,50.97,0,1.21,0,3.28-.99,3.24,1.66-.02,1.45.29,2.86-1.93,3.35-7.07,1.56-8.44,6.81-8.42,13.17.08,30.3.11,60.6,0,90.9-.04,10.43-1.06,20.81-4.76,30.68-6.35,16.91-20.04,25.32-36.3,30.21-22.11,6.65-44.86,6.78-67.56,4.66-12.93-1.2-25.64-4.22-37.46-10.04-16.87-8.3-24.4-22.66-26.58-40.66-2.3-19.07-.4-38.21-1.14-53.54Z"/>
        <path d="M605.25,332.05c24.49,0,48.97-.08,73.46.05,5.99.03,10.48-1.59,11.87-7.97.47-2.14,1.94-1.91,3.42-1.93,2.25-.02,1.58,1.74,1.59,2.87.04,15.15.04,30.3,0,45.45,0,1.01.54,2.62-1.42,2.48-1.31-.09-3.02.79-3.59-1.52-1.8-7.33-7.58-8.43-13.82-8.43-31.82-.05-63.63.06-95.45-.13-4.07-.02-4.87,1.2-4.77,4.95.26,9.65.19,19.31.03,28.97-.05,2.99.36,4.3,3.92,4.26,20.32-.2,40.64-.2,60.96-.03,5.48.04,8.65-2.66,10.68-7.21.73-1.64,1.24-3.02,3.42-2.7,2.73.4,1.69,2.51,1.7,3.91.07,14.15.06,28.3,0,42.45,0,1.27.86,3.13-1.6,3.47-2,.27-2.89-.55-3.52-2.41-1.89-5.59-5.92-7.7-11.81-7.65-19.82.18-39.64.17-59.46-.03-3.59-.03-4.36,1-4.32,4.42.18,17.31.15,34.63.04,51.94-.03,5.56,1.68,9.77,7.34,11.54,1.81.57,2.92,1.44,2.65,3.52-.37,2.81-2.55,1.54-3.87,1.55-17.82.09-35.65.09-53.47.01-1.22,0-3.12,1.04-3.64-1.27-.47-2.08.76-3.11,2.48-3.63,6-1.8,7.57-6.31,7.57-11.94-.02-46.12-.03-92.24,0-138.35,0-5.42-2.14-9.3-7.37-11.07-2-.68-2.99-1.53-2.76-3.83.31-2.96,2.46-1.69,3.76-1.7,25.32-.08,50.64-.06,75.96-.06Z"/>
      </g>
      <path d="M685.93,132.15c-25.03.49-49.37-4.04-73.48-10.16-7.76-1.97-7.84-1.92-8.98,5.87-1.74,11.93-1.61,23.78.89,35.6.4,1.9.52,2.9,3.07,2.2,17.66-4.86,35.64-8.39,53.83-10.34,19.48-2.09,39.06-2.57,58.37,1.96,2.81.66,5.53,2.07,8.03,3.57,5.31,3.2,5.85,5.68,3.48,13.59-12.46,41.58-39.42,70.09-79.05,86.84-22.34,9.44-46.02,12.55-69.99,10.55-35.21-2.95-66.22-16.12-91.39-41.55-17.16-17.34-28.22-38.12-33.98-61.7-1.28-5.25,3.38-7.2,7.04-8.82,9.69-4.28,20.06-5.34,30.54-5.7,27.84-.94,55.03,3.46,81.92,10.14,8.28,2.05,9.36,1.75,10.07-6.32.96-10.9,1.3-21.84-.74-32.73-.67-3.61-1.93-4.94-5.64-3.86-10.79,3.12-21.78,5.44-32.85,7.21-25.98,4.15-52.03,6.22-78.08.51-3.84-.84-7.4-2.84-10.4-5.53-1.71-1.53-2.55-3.44-1.93-5.77,5.85-22.03,15.74-41.84,31.4-58.7,18-19.39,39.97-32.2,65.2-39.28,16.29-4.57,33.12-6.74,50.06-5.46,38.15,2.87,71.69,16.36,98.08,44.88,15.17,16.39,25.91,35.35,30.43,57.47,1.02,5-.51,7.84-5.66,9.92-9.05,3.65-18.49,5.52-28.26,5.62-4,.04-8,0-11.99,0ZM486.18,174.45c8.87.63,17.67,1.24,26.44,2.5,21.25,3.05,41.97,8.27,62.14,15.46,29.29,10.44,57.35,23.54,83.41,40.66,1.59,1.04,3.18,1.4,4.63.35,4.61-3.36,9.5-6.4,13.33-10.92-32.66-16.78-65.93-31.35-101.28-40.87-23.59-6.35-47.39-10.71-71.91-9.92-5.64.18-11.44-.03-16.76,2.75ZM703.75,112.21c-2.77-.36-5.54-.94-8.32-1.05-22.93-.88-45-6.21-66.88-12.63-15.37-4.51-30.22-10.38-44.85-16.83-15.25-6.73-30.12-14.28-44.29-23.06-11.69-7.25-11.54-7.49-22.08,1.34-4.61,3.86-4.59,4.06.63,6.52,10.73,5.07,21.4,10.25,32.2,15.16,19.35,8.81,39.26,16.21,59.7,22.02,15.52,4.42,31.27,7.85,47.36,9.69,15.57,1.78,31.04,2.06,46.53-1.18ZM640.15,244.68c-45.35-29.88-93.35-49.96-147.42-53.24,10.53,3.57,21.32,6.28,31.77,10.19,32.15,12.04,62.85,26.72,90.06,47.99.91.71,1.71,1.64,3.03,1.35,7.34-1.6,14.75-2.97,22.56-6.3ZM695.8,94.96c-3.18-2.21-6.99-2.44-10.55-3.49-19.79-5.8-38.93-13.22-57.41-22.38-18.2-9.01-36.09-18.52-51.95-31.42-1.09-.88-2.13-2.23-3.85-2-7.56,1.02-14.87,2.92-22.67,6.2,45.17,29.59,92.76,49.69,146.43,53.08ZM604.85,33.99c10.53,12.2,68.1,40.86,80.87,40.34-20.8-25.64-49.59-34.48-80.87-40.34ZM504.09,211.31c9.06,18.22,61.02,43.75,80.6,40.03-24.87-17.24-50.81-31.71-80.6-40.03ZM667.99,197.37c6.76,3.44,13.08,6.59,19.33,9.87,1.79.94,3.01.78,4.2-.86,7.69-10.62,14.22-21.9,20.04-34.89-16.37,6.73-31.64,13.03-43.57,25.89ZM478.11,114.7c10.09-3.77,18.74-7.65,26.91-12.6,4.97-3.01,9.66-6.31,13.8-10.42,1.88-1.87,2.29-2.89-.46-4.22-5.49-2.65-10.88-5.52-16.3-8.34-1.67-.87-2.79-.8-4.09.92-7.87,10.42-14.11,21.75-19.87,34.67ZM568.35,108.84c-8.97-3.63-16.92-6.74-24.75-10.1-1.75-.75-2.39.25-3.41.99-4.69,3.38-9.53,6.52-14.56,9.4-6.73,3.85-14.05,6.39-21.03,9.78,21.57.6,42.23-3.91,63.76-10.07ZM621.29,177.54c8.59,3.62,16.57,6.98,24.55,10.33,1.49.62,2.46-.36,3.53-1.18,6.46-4.9,13.36-9.14,20.68-12.6,5.07-2.39,10.39-4.26,15.6-6.36-21.96-.8-42.94,3.65-64.37,9.8Z"/>
    </g>
  </g>
</svg>